<?xml version="1.0" encoding="utf-8"?>
<!-- Generator: Adobe Illustrator 17.0.0, SVG Export Plug-In . SVG Version: 6.00 Build 0)  -->
<!DOCTYPE svg PUBLIC "-//W3C//DTD SVG 1.1//EN" "http://www.w3.org/Graphics/SVG/1.1/DTD/svg11.dtd">
<svg version="1.1" id="Layer_1" xmlns="http://www.w3.org/2000/svg" xmlns:xlink="http://www.w3.org/1999/xlink" x="0px" y="0px"
	 width="224.047px" height="258.708px" viewBox="0 0 224.047 258.708" enable-background="new 0 0 224.047 258.708"
	 xml:space="preserve">
<g>
	<polygon fill="#FFFFFF" points="0,64.677 112.024,0 224.047,64.677 224.047,194.031 112.024,258.708 0,194.031 	"/>
	<g>
		<path fill="#58595B" d="M182.396,127.872l-8.908-29.133h-36.054v-7.043H47.152v42.9v3.842v22.41h6.32
			c1.01,6.872,6.944,12.166,14.093,12.166c7.149,0,13.083-5.293,14.093-12.166h51.934h3.842h3.035
			c1.01,6.872,6.944,12.166,14.093,12.166s13.083-5.293,14.093-12.166h14.24v-29.133v-2.209v-0.023l-0.492-1.61H182.396z
			 M170.646,102.58l7.732,25.292h-40.944V102.58H170.646z M50.994,95.537h82.598v3.202v29.133v3.842v2.881H50.994V95.537z
			 M67.565,169.171c-5.683,0-10.31-4.582-10.397-10.244v0c0-0.059-0.003-0.119-0.007-0.183c0-0.132,0.015-0.261,0.02-0.392
			c0.009-0.224,0.014-0.45,0.037-0.671c0.012-0.12,0.038-0.235,0.054-0.354c0.032-0.227,0.06-0.455,0.106-0.677
			c0.023-0.111,0.058-0.217,0.084-0.327c0.054-0.224,0.106-0.449,0.174-0.667c0.032-0.103,0.076-0.201,0.111-0.303
			c0.076-0.219,0.15-0.439,0.241-0.65c0.04-0.094,0.09-0.182,0.132-0.274c0.098-0.213,0.195-0.428,0.307-0.633
			c0.049-0.09,0.108-0.174,0.16-0.263c0.117-0.2,0.233-0.402,0.362-0.593c0.06-0.088,0.128-0.168,0.19-0.254
			c0.133-0.184,0.265-0.37,0.41-0.545c0.071-0.086,0.151-0.163,0.224-0.247c0.147-0.166,0.291-0.334,0.447-0.49
			c0.084-0.083,0.176-0.158,0.262-0.238c0.157-0.146,0.311-0.295,0.476-0.432c0.095-0.078,0.198-0.146,0.295-0.221
			c0.167-0.128,0.33-0.259,0.505-0.377c0.108-0.073,0.225-0.135,0.336-0.205c0.172-0.107,0.342-0.219,0.521-0.316
			c0.116-0.063,0.238-0.113,0.356-0.172c0.183-0.09,0.363-0.186,0.552-0.266c0.13-0.055,0.267-0.097,0.4-0.147
			c0.184-0.069,0.365-0.144,0.554-0.203c0.143-0.045,0.293-0.075,0.439-0.113c0.185-0.049,0.367-0.104,0.556-0.143
			c0.162-0.033,0.328-0.05,0.493-0.075c0.179-0.028,0.356-0.064,0.538-0.082c0.262-0.027,0.53-0.034,0.798-0.04
			c0.088-0.002,0.174-0.013,0.263-0.013c0.358,0,0.712,0.018,1.061,0.054c0.054,0.005,0.105,0.018,0.158,0.024
			c0.294,0.035,0.587,0.075,0.873,0.134c0.048,0.01,0.094,0.026,0.142,0.037c0.289,0.064,0.575,0.133,0.854,0.22
			c0.038,0.012,0.073,0.028,0.11,0.04c0.286,0.093,0.57,0.193,0.845,0.31c0.039,0.017,0.076,0.038,0.115,0.055
			c0.27,0.118,0.536,0.243,0.794,0.383c0.038,0.021,0.073,0.046,0.11,0.067c0.255,0.143,0.506,0.292,0.748,0.455
			c0.037,0.025,0.069,0.054,0.106,0.079c0.238,0.165,0.472,0.336,0.695,0.52c0.037,0.031,0.071,0.066,0.108,0.098
			c0.217,0.184,0.43,0.373,0.632,0.574c0.032,0.032,0.06,0.068,0.091,0.1c0.201,0.206,0.397,0.416,0.58,0.638
			c0.034,0.041,0.064,0.087,0.097,0.129c0.175,0.218,0.345,0.439,0.502,0.671c0.034,0.05,0.062,0.105,0.095,0.155
			c0.149,0.229,0.295,0.461,0.427,0.702c0.031,0.056,0.055,0.116,0.084,0.173c0.125,0.241,0.248,0.484,0.355,0.735
			c0.028,0.066,0.048,0.135,0.075,0.202c0.099,0.247,0.196,0.496,0.276,0.752c0.024,0.077,0.039,0.158,0.062,0.236
			c0.072,0.25,0.142,0.501,0.195,0.758c0.019,0.091,0.027,0.185,0.043,0.277c0.044,0.249,0.089,0.498,0.115,0.753
			c0.011,0.103,0.009,0.209,0.017,0.313c0.018,0.247,0.037,0.494,0.038,0.746c-0.003,0.044-0.006,0.087-0.007,0.131l-0.001,0.061
			C77.865,164.597,73.242,169.171,67.565,169.171z M133.592,157.005H81.704c-0.005-0.04-0.015-0.078-0.02-0.117
			c-0.05-0.374-0.112-0.744-0.19-1.108c-0.014-0.064-0.03-0.127-0.044-0.191c-0.085-0.371-0.181-0.739-0.295-1.098
			c-0.014-0.044-0.03-0.087-0.044-0.131c-0.118-0.361-0.248-0.716-0.393-1.063c-0.01-0.023-0.018-0.047-0.028-0.07
			c-0.15-0.353-0.316-0.697-0.493-1.035c-0.026-0.05-0.05-0.1-0.076-0.149c-0.173-0.322-0.36-0.634-0.556-0.94
			c-0.038-0.059-0.075-0.118-0.113-0.176c-0.197-0.297-0.405-0.586-0.623-0.867c-0.046-0.059-0.091-0.117-0.137-0.175
			c-0.222-0.278-0.454-0.547-0.696-0.807c-0.048-0.051-0.096-0.101-0.145-0.152c-0.25-0.261-0.508-0.514-0.777-0.756
			c-0.043-0.038-0.087-0.075-0.13-0.113c-0.283-0.248-0.573-0.487-0.875-0.712c-0.025-0.018-0.05-0.035-0.075-0.053
			c-0.301-0.222-0.612-0.432-0.931-0.63c-0.03-0.019-0.059-0.039-0.089-0.057c-0.322-0.197-0.655-0.379-0.993-0.55
			c-0.05-0.025-0.1-0.052-0.151-0.077c-0.331-0.163-0.671-0.312-1.016-0.449c-0.061-0.024-0.121-0.049-0.182-0.072
			c-0.345-0.132-0.696-0.25-1.052-0.355c-0.063-0.018-0.126-0.036-0.19-0.054c-0.362-0.101-0.729-0.189-1.101-0.262
			c-0.058-0.011-0.116-0.021-0.174-0.031c-0.385-0.07-0.773-0.127-1.168-0.165c-0.039-0.004-0.079-0.006-0.118-0.009
			c-0.417-0.037-0.837-0.059-1.263-0.059l-0.001,0h0h0c-0.427,0-0.849,0.022-1.267,0.059c-0.038,0.003-0.076,0.005-0.114,0.009
			c-0.397,0.038-0.788,0.096-1.175,0.166c-0.055,0.01-0.11,0.019-0.164,0.029c-0.376,0.073-0.747,0.162-1.112,0.264
			c-0.059,0.016-0.118,0.033-0.176,0.05c-0.362,0.106-0.718,0.226-1.067,0.36c-0.055,0.021-0.109,0.043-0.163,0.065
			c-0.352,0.14-0.697,0.291-1.035,0.457c-0.043,0.021-0.084,0.044-0.127,0.065c-0.347,0.175-0.687,0.361-1.017,0.563
			c-0.02,0.012-0.039,0.025-0.058,0.037c-0.335,0.208-0.662,0.428-0.978,0.662c-0.014,0.01-0.028,0.019-0.041,0.029
			c-0.312,0.232-0.612,0.479-0.903,0.736c-0.033,0.029-0.067,0.057-0.1,0.087c-0.278,0.25-0.546,0.511-0.804,0.782
			c-0.039,0.041-0.078,0.081-0.116,0.122c-0.251,0.269-0.491,0.549-0.721,0.837c-0.037,0.046-0.074,0.093-0.11,0.14
			c-0.227,0.292-0.444,0.592-0.648,0.902c-0.03,0.045-0.058,0.09-0.087,0.135c-0.205,0.319-0.4,0.645-0.58,0.981
			c-0.018,0.033-0.034,0.067-0.051,0.099c-0.186,0.354-0.36,0.714-0.516,1.084c-0.001,0.003-0.002,0.005-0.003,0.008
			c-0.158,0.375-0.299,0.759-0.425,1.15c-0.008,0.025-0.017,0.049-0.025,0.074c-0.119,0.376-0.22,0.759-0.308,1.148
			c-0.01,0.046-0.022,0.092-0.032,0.139c-0.082,0.38-0.147,0.766-0.198,1.156c-0.004,0.03-0.012,0.059-0.015,0.09h-2.433v-18.569
			h82.598V157.005z M154.562,169.171c-5.681,0-10.306-4.578-10.396-10.238l0-0.03c-0.001-0.05-0.004-0.102-0.007-0.157
			c0-0.189,0.018-0.374,0.028-0.561c0.009-0.167,0.01-0.336,0.027-0.501c0.018-0.176,0.053-0.346,0.079-0.52
			c0.027-0.171,0.045-0.344,0.08-0.511c0.034-0.163,0.083-0.32,0.124-0.48c0.044-0.172,0.082-0.347,0.134-0.515
			c0.047-0.151,0.109-0.296,0.163-0.444c0.062-0.17,0.118-0.344,0.189-0.51c0.059-0.138,0.13-0.269,0.195-0.404
			c0.081-0.169,0.156-0.34,0.245-0.504c0.067-0.123,0.146-0.238,0.218-0.358c0.1-0.167,0.195-0.337,0.305-0.498
			c0.075-0.111,0.161-0.214,0.241-0.322c0.118-0.16,0.232-0.324,0.359-0.478c0.086-0.104,0.182-0.199,0.272-0.3
			c0.132-0.147,0.259-0.298,0.399-0.437c0.097-0.096,0.203-0.183,0.303-0.275c0.144-0.133,0.285-0.27,0.436-0.395
			c0.108-0.089,0.224-0.167,0.336-0.251c0.154-0.117,0.304-0.238,0.465-0.347c0.125-0.084,0.258-0.156,0.387-0.235
			c0.156-0.096,0.308-0.197,0.47-0.285c0.144-0.078,0.295-0.142,0.443-0.214c0.155-0.075,0.306-0.157,0.465-0.224
			c0.167-0.071,0.342-0.126,0.513-0.188c0.147-0.053,0.291-0.115,0.441-0.161c0.18-0.056,0.367-0.096,0.551-0.142
			c0.148-0.037,0.293-0.083,0.444-0.114c0.205-0.042,0.415-0.066,0.624-0.095c0.136-0.019,0.269-0.048,0.407-0.062
			c0.349-0.035,0.703-0.054,1.061-0.054s0.712,0.018,1.061,0.054c0.124,0.013,0.243,0.039,0.365,0.056
			c0.223,0.031,0.448,0.057,0.666,0.102c0.13,0.027,0.255,0.067,0.384,0.099c0.205,0.05,0.412,0.095,0.612,0.158
			c0.129,0.04,0.251,0.093,0.378,0.138c0.193,0.069,0.389,0.132,0.577,0.212c0.132,0.056,0.257,0.125,0.387,0.186
			c0.175,0.083,0.353,0.16,0.522,0.252c0.129,0.07,0.249,0.152,0.375,0.227c0.162,0.097,0.327,0.188,0.483,0.294
			c0.126,0.085,0.243,0.182,0.365,0.272c0.146,0.108,0.296,0.211,0.436,0.326c0.119,0.098,0.229,0.208,0.344,0.311
			c0.132,0.119,0.269,0.234,0.396,0.36c0.109,0.109,0.207,0.227,0.311,0.341c0.121,0.132,0.247,0.259,0.361,0.397
			c0.1,0.12,0.187,0.25,0.281,0.374c0.107,0.141,0.219,0.278,0.318,0.425c0.088,0.129,0.163,0.266,0.244,0.399
			c0.093,0.152,0.192,0.3,0.278,0.457c0.075,0.137,0.136,0.281,0.205,0.422c0.079,0.161,0.164,0.319,0.234,0.485
			c0.062,0.146,0.11,0.299,0.166,0.448c0.062,0.168,0.131,0.333,0.185,0.505c0.047,0.152,0.08,0.309,0.121,0.464
			c0.046,0.177,0.1,0.351,0.137,0.531c0.032,0.157,0.05,0.318,0.075,0.477c0.029,0.184,0.065,0.366,0.085,0.553
			c0.017,0.162,0.018,0.328,0.027,0.491c0.011,0.19,0.028,0.378,0.029,0.57c-0.004,0.052-0.006,0.104-0.007,0.157l0,0.03
			C164.868,164.593,160.242,169.171,154.562,169.171z M179.053,157.005H168.7c-0.004-0.035-0.013-0.069-0.018-0.104
			c-0.05-0.382-0.114-0.76-0.194-1.132c-0.012-0.055-0.026-0.11-0.038-0.165c-0.087-0.38-0.185-0.755-0.301-1.123
			c-0.011-0.035-0.024-0.068-0.035-0.103c-0.122-0.376-0.257-0.745-0.409-1.107c-0.005-0.013-0.01-0.026-0.015-0.039
			c-0.153-0.362-0.324-0.714-0.505-1.06c-0.022-0.041-0.042-0.083-0.063-0.124c-0.176-0.329-0.367-0.648-0.568-0.961
			c-0.033-0.052-0.066-0.104-0.1-0.155c-0.201-0.304-0.413-0.598-0.636-0.885c-0.041-0.053-0.082-0.105-0.123-0.157
			c-0.226-0.283-0.462-0.557-0.708-0.822c-0.043-0.046-0.087-0.091-0.131-0.137c-0.254-0.266-0.517-0.523-0.79-0.769
			c-0.038-0.034-0.077-0.066-0.115-0.1c-0.287-0.252-0.582-0.495-0.889-0.724c-0.019-0.014-0.038-0.027-0.057-0.041
			c-0.309-0.228-0.627-0.443-0.955-0.646c-0.025-0.015-0.049-0.032-0.074-0.047c-0.326-0.199-0.662-0.383-1.005-0.557
			c-0.046-0.023-0.092-0.048-0.139-0.071c-0.334-0.165-0.677-0.315-1.025-0.453c-0.057-0.023-0.115-0.046-0.172-0.068
			c-0.347-0.133-0.701-0.252-1.06-0.357c-0.061-0.018-0.122-0.035-0.183-0.052c-0.364-0.102-0.732-0.19-1.107-0.263
			c-0.056-0.011-0.113-0.02-0.169-0.03c-0.386-0.07-0.776-0.127-1.172-0.166c-0.038-0.004-0.077-0.005-0.116-0.009
			c-0.417-0.037-0.839-0.059-1.266-0.059s-0.848,0.022-1.266,0.059c-0.039,0.003-0.078,0.005-0.116,0.009
			c-0.396,0.038-0.786,0.095-1.172,0.166c-0.056,0.01-0.113,0.019-0.169,0.03c-0.374,0.073-0.743,0.161-1.107,0.263
			c-0.061,0.017-0.122,0.034-0.183,0.052c-0.359,0.106-0.713,0.225-1.06,0.357c-0.058,0.022-0.115,0.045-0.172,0.068
			c-0.348,0.138-0.691,0.288-1.025,0.453c-0.047,0.023-0.092,0.048-0.139,0.071c-0.342,0.173-0.679,0.357-1.005,0.557
			c-0.025,0.015-0.049,0.032-0.074,0.047c-0.327,0.203-0.646,0.418-0.955,0.646c-0.019,0.014-0.039,0.027-0.057,0.041
			c-0.307,0.229-0.602,0.472-0.889,0.724c-0.038,0.033-0.077,0.066-0.115,0.1c-0.274,0.246-0.536,0.503-0.79,0.769
			c-0.044,0.046-0.088,0.091-0.131,0.137c-0.246,0.265-0.482,0.539-0.708,0.822c-0.042,0.052-0.083,0.104-0.123,0.157
			c-0.223,0.287-0.435,0.581-0.636,0.885c-0.034,0.051-0.066,0.103-0.1,0.155c-0.201,0.313-0.392,0.632-0.568,0.961
			c-0.022,0.041-0.042,0.083-0.063,0.124c-0.181,0.346-0.352,0.698-0.505,1.06c-0.005,0.013-0.01,0.026-0.015,0.039
			c-0.152,0.361-0.287,0.731-0.409,1.107c-0.011,0.035-0.024,0.068-0.035,0.103c-0.116,0.368-0.215,0.743-0.301,1.123
			c-0.013,0.055-0.026,0.109-0.038,0.165c-0.08,0.372-0.144,0.75-0.194,1.132c-0.005,0.035-0.014,0.069-0.018,0.104h-2.99v-18.569
			v-3.842v-2.881h41.619V157.005z"/>
		<path fill="#58595B" d="M92.293,99.238c-8.727,0-15.827,7.101-15.827,15.828s7.1,15.827,15.827,15.827s15.827-7.1,15.827-15.827
			S101.021,99.238,92.293,99.238z M104.745,115.066c0,6.866-5.586,12.452-12.452,12.452c-6.866,0-12.452-5.586-12.452-12.452
			c0-6.866,5.586-12.452,12.452-12.452C99.159,102.614,104.745,108.2,104.745,115.066z"/>
		<path fill="#58595B" d="M98.478,116.105c0,3.412-2.775,6.187-6.187,6.187c-3.412,0-6.187-2.775-6.187-6.187
			c0-0.782-0.637-1.419-1.419-1.419s-1.419,0.637-1.419,1.419c0,4.977,4.049,9.026,9.026,9.026c4.977,0,9.026-4.049,9.026-9.026
			c0-0.782-0.637-1.419-1.419-1.419S98.478,115.323,98.478,116.105z"/>
		<path fill="#58595B" d="M88.87,114.6c1.223,0,2.18-1.292,2.18-2.941c0-1.649-0.957-2.941-2.18-2.941s-2.18,1.291-2.18,2.941
			C86.69,113.308,87.647,114.6,88.87,114.6z"/>
		<path fill="#58595B" d="M95.717,114.6c1.223,0,2.18-1.292,2.18-2.941c0-1.649-0.957-2.941-2.18-2.941s-2.18,1.291-2.18,2.941
			C93.537,113.308,94.494,114.6,95.717,114.6z"/>
	</g>
</g>
</svg>
