<?xml version="1.0" encoding="utf-8"?>
<!-- Generator: Adobe Illustrator 17.0.0, SVG Export Plug-In . SVG Version: 6.00 Build 0)  -->
<!DOCTYPE svg PUBLIC "-//W3C//DTD SVG 1.1//EN" "http://www.w3.org/Graphics/SVG/1.1/DTD/svg11.dtd">
<svg version="1.1" id="Layer_1" xmlns="http://www.w3.org/2000/svg" xmlns:xlink="http://www.w3.org/1999/xlink" x="0px" y="0px"
	 width="224.047px" height="258.708px" viewBox="0 0 224.047 258.708" enable-background="new 0 0 224.047 258.708"
	 xml:space="preserve">
<g>
	<polygon fill="#FFFFFF" points="0,64.677 112.024,0 224.047,64.677 224.047,194.031 112.024,258.708 0,194.031 	"/>
	<g>
		<path fill="#58595B" d="M112.024,94.878c7.137,0,12.943,5.806,12.943,12.943s-5.806,12.943-12.943,12.943
			s-12.943-5.806-12.943-12.943S104.887,94.878,112.024,94.878 M112.024,91.059c-9.258,0-16.762,7.506-16.762,16.762
			c0,9.256,7.504,16.762,16.762,16.762c9.258,0,16.762-7.507,16.762-16.762C128.786,98.565,121.282,91.059,112.024,91.059
			L112.024,91.059z"/>
		<path fill="#58595B" d="M104.749,61.89l5.295,3.209l1.979,1.2l1.979-1.2l5.295-3.209l4.048,4.688l1.512,1.751l2.252-0.529
			l6.025-1.415l2.398,5.709l0.896,2.134l2.306,0.193l6.171,0.517l0.517,6.169l0.193,2.305l2.132,0.896l5.71,2.4l-1.415,6.031
			l-0.529,2.253l1.752,1.511l4.686,4.042l-3.21,5.294l-1.201,1.981l1.201,1.98l3.211,5.292l-4.688,4.044l-1.752,1.511l0.529,2.253
			l1.415,6.031l-5.71,2.4l-2.132,0.896l-0.193,2.305l-0.517,6.169l-6.171,0.517l-2.306,0.193l-0.897,2.134l-2.398,5.708
			l-6.023-1.418l-2.254-0.531l-1.513,1.753l-4.048,4.692l-5.295-3.209l-1.979-1.2l-1.979,1.2l-5.294,3.209l-4.048-4.692
			l-1.513-1.753l-2.254,0.531l-6.023,1.418l-2.397-5.708l-0.896-2.134l-2.306-0.193l-6.171-0.517l-0.516-6.169l-0.193-2.306
			l-2.133-0.897l-5.71-2.4l1.415-6.031l0.528-2.253l-1.752-1.511l-4.688-4.044l3.211-5.292l1.202-1.981l-1.201-1.981l-3.21-5.294
			l4.686-4.042l1.752-1.511l-0.528-2.253l-1.415-6.031l5.711-2.4l2.133-0.897l0.193-2.306l0.516-6.169l6.171-0.517l2.306-0.193
			l0.896-2.134l2.398-5.709l6.025,1.414l2.252,0.529l1.512-1.751L104.749,61.89 M112.024,135.586
			c15.31,0,27.765-12.455,27.765-27.765s-12.455-27.765-27.765-27.765s-27.765,12.455-27.765,27.765S96.714,135.586,112.024,135.586
			 M119.674,57.535c-0.355,0-0.713,0.095-1.037,0.29l-6.614,4.008l-6.613-4.008c-0.322-0.195-0.68-0.29-1.035-0.29
			c-0.564,0-1.119,0.239-1.51,0.692l-5.056,5.855l-7.53-1.768c-0.152-0.036-0.306-0.054-0.457-0.054
			c-0.785,0-1.521,0.47-1.834,1.223l-2.995,7.133l-7.71,0.645c-0.968,0.08-1.74,0.851-1.819,1.819l-0.645,7.707l-7.132,2.998
			c-0.898,0.374-1.391,1.347-1.169,2.292l1.767,7.535l-5.855,5.051c-0.736,0.636-0.907,1.712-0.404,2.539l4.013,6.618l-4.013,6.613
			c-0.503,0.832-0.332,1.908,0.404,2.544l5.855,5.051l-1.767,7.535c-0.222,0.945,0.271,1.917,1.169,2.292l7.132,2.998l0.645,7.708
			c0.079,0.968,0.851,1.74,1.819,1.819l7.71,0.645l2.995,7.132c0.295,0.706,0.963,1.151,1.695,1.202
			c0.047,0.005,0.092,0.019,0.138,0.019c0.152,0,0.304-0.014,0.458-0.051l7.53-1.773l5.056,5.86c0.36,0.416,0.863,0.631,1.382,0.664
			c0.045,0.005,0.087,0.028,0.131,0.028c0.082,0,0.166-0.023,0.248-0.033c0.269-0.033,0.538-0.108,0.784-0.257l6.613-4.008
			l6.614,4.008c0.322,0.196,0.678,0.29,1.033,0.29c0.564,0,1.123-0.238,1.511-0.692l5.056-5.86l7.53,1.773
			c0.152,0.037,0.304,0.051,0.456,0.051c0.049,0,0.091-0.014,0.138-0.019c0.729-0.051,1.403-0.496,1.697-1.202l2.996-7.132
			l7.71-0.645c0.969-0.08,1.74-0.851,1.819-1.819l0.646-7.708l7.132-2.998c0.898-0.374,1.391-1.347,1.169-2.292l-1.768-7.535
			l5.855-5.051c0.736-0.636,0.907-1.712,0.404-2.544l-4.012-6.613l4.012-6.618c0.503-0.828,0.332-1.903-0.404-2.539l-5.855-5.051
			l1.768-7.535c0.222-0.945-0.271-1.918-1.169-2.292l-7.132-2.998l-0.646-7.707c-0.079-0.968-0.851-1.74-1.819-1.819l-7.71-0.645
			l-2.996-7.133c-0.313-0.753-1.054-1.223-1.837-1.223c-0.151,0-0.303,0.017-0.454,0.054l-7.53,1.768l-5.056-5.855
			C120.791,57.773,120.237,57.535,119.674,57.535L119.674,57.535z M112.024,131.767c-13.203,0-23.946-10.743-23.946-23.946
			c0-13.203,10.743-23.946,23.946-23.946s23.946,10.743,23.946,23.946C135.969,121.024,125.227,131.767,112.024,131.767
			L112.024,131.767z"/>
		<path fill="#58595B" d="M94.703,161.131l1.647,1.908c1.947,2.256,4.742,3.584,7.712,3.672l1.625,6.325l-4.855,18.894l-5.832-8.757
			l-1.902-2.855l-3.042,1.585l-9.326,4.859l6.453-25.11c0.855,0.221,1.741,0.335,2.64,0.335c0.824,0,1.648-0.096,2.45-0.284
			L94.703,161.131 M84.729,155.853l-9.831,38.253l16.921-8.816l10.579,15.883l7.231-28.136l-2.745-10.687
			c-0.8,0.323-1.637,0.547-2.505,0.547c-1.976,0-3.847-0.856-5.138-2.352l-3.161-3.662l-4.684,1.104
			c-0.517,0.122-1.045,0.182-1.574,0.182C87.825,158.169,85.989,157.294,84.729,155.853L84.729,155.853z"/>
		<path fill="#58595B" d="M129.346,161.131l2.436,0.574c0.784,0.188,1.605,0.283,2.441,0.283c0.9,0,1.788-0.115,2.643-0.335
			l6.453,25.11l-9.326-4.859l-3.042-1.585l-1.902,2.855l-5.833,8.757l-6.595-25.66c0.983,0.295,2.01,0.446,3.049,0.446
			c3.101,0,6.033-1.347,8.037-3.686L129.346,161.131 M139.318,155.849c-1.262,1.45-3.1,2.32-5.095,2.32
			c-0.531,0-1.062-0.061-1.55-0.178l-4.705-1.108l-3.152,3.652c-1.286,1.501-3.162,2.362-5.145,2.362
			c-1.246,0-2.465-0.341-3.517-0.982l-4.13-2.507l-0.958,0.585l10.584,41.18l10.579-15.883l16.921,8.816L139.318,155.849
			L139.318,155.849z"/>
	</g>
</g>
</svg>
