<?xml version="1.0" encoding="utf-8"?>
<!-- Generator: Adobe Illustrator 17.1.0, SVG Export Plug-In . SVG Version: 6.00 Build 0)  -->
<!DOCTYPE svg PUBLIC "-//W3C//DTD SVG 1.1//EN" "http://www.w3.org/Graphics/SVG/1.1/DTD/svg11.dtd">
<svg version="1.1" id="Layer_1" xmlns="http://www.w3.org/2000/svg" xmlns:xlink="http://www.w3.org/1999/xlink" x="0px" y="0px"
	 viewBox="0 0 68.82 56.613" enable-background="new 0 0 68.82 56.613" xml:space="preserve">
<g>
	<path fill="#FFFFFF" d="M54.246,22.958l-13.224,7.635l-11.875-6.856V8.414L14.573,0L0,8.414v16.828l13.224,7.635V48.2l14.573,8.414
		l13.224-7.635l13.224,7.635L68.82,48.2V31.372L54.246,22.958z M2.698,9.972l11.875-6.856l11.875,6.856v13.712L14.573,30.54
		L2.698,23.684V9.972z M15.923,46.642V32.929l11.875-6.856l11.875,6.856v13.712l-11.875,6.856L15.923,46.642z M66.122,46.642
		l-11.875,6.856l-11.875-6.856V32.929l11.875-6.856l11.875,6.856V46.642z"/>
	<polygon fill="#FFFFFF" points="18.999,20.039 12.866,20.039 19.771,13.303 18.999,11.404 10.148,11.404 10.148,13.617 
		16.28,13.617 9.376,20.353 10.148,22.251 18.999,22.251 	"/>
	<polygon fill="#FFFFFF" points="48.823,35.36 48.823,44.211 51.035,44.211 51.035,38.079 57.772,44.983 59.67,44.211 59.67,35.36 
		57.457,35.36 57.457,41.493 50.721,34.588 	"/>
	<rect x="22.374" y="42.819" fill="#FFFFFF" width="10.847" height="2.213"/>
	<rect x="22.374" y="34.54" fill="#FFFFFF" width="10.847" height="2.213"/>
	<rect x="22.374" y="38.679" fill="#FFFFFF" width="10.847" height="2.213"/>
</g>
</svg>
