<?xml version="1.0" encoding="utf-8"?>
<!-- Generator: Adobe Illustrator 17.0.0, SVG Export Plug-In . SVG Version: 6.00 Build 0)  -->
<!DOCTYPE svg PUBLIC "-//W3C//DTD SVG 1.1//EN" "http://www.w3.org/Graphics/SVG/1.1/DTD/svg11.dtd">
<svg version="1.1" id="Layer_1" xmlns="http://www.w3.org/2000/svg" xmlns:xlink="http://www.w3.org/1999/xlink" x="0px" y="0px"
	 width="1149.054px" height="1985.219px" viewBox="0 0 1149.054 1985.219" enable-background="new 0 0 1149.054 1985.219"
	 xml:space="preserve">
<g>
	<rect y="2.629" fill="#E9EAE8" width="1149.054" height="1982.455"/>
	<g opacity="0.2">
		<polygon fill="#58595B" points="145.797,229.782 150.539,200.436 145.797,146.772 141.055,200.436 		"/>
		<polygon fill="#58595B" points="56.198,141.617 113.104,154.682 145.768,146.758 145.797,146.772 145.786,146.753 
			145.789,146.753 145.797,146.772 145.805,146.753 145.808,146.753 145.797,146.772 145.826,146.758 178.49,154.682 
			235.396,141.617 177.371,135.136 145.962,146.69 184.061,127.669 227.608,70.223 166.214,110.969 145.813,146.745 
			145.807,146.747 160.62,109.468 145.797,22.745 130.974,109.468 145.787,146.747 145.781,146.745 125.38,110.969 63.986,70.223 
			107.533,127.669 145.632,146.69 114.223,135.136 		"/>
		<polygon fill="#58595B" points="91.828,193.428 131.531,169.392 145.797,146.772 121.353,157.618 		"/>
		<polygon fill="#58595B" points="199.766,193.428 170.241,157.618 145.797,146.772 160.063,169.392 		"/>
		<polygon fill="#58595B" points="431.617,229.782 436.359,200.436 431.617,146.772 426.875,200.436 		"/>
		<polygon fill="#58595B" points="342.019,141.617 398.923,154.682 431.588,146.758 431.617,146.772 431.606,146.753 
			431.609,146.753 431.617,146.772 431.625,146.753 431.628,146.753 431.617,146.772 431.646,146.758 464.311,154.682 
			521.215,141.617 463.19,135.136 431.782,146.69 469.881,127.669 513.428,70.223 452.034,110.969 431.633,146.745 431.627,146.747 
			446.44,109.468 431.617,22.745 416.794,109.468 431.607,146.747 431.601,146.745 411.2,110.969 349.806,70.223 393.353,127.669 
			431.452,146.69 400.043,135.136 		"/>
		<polygon fill="#58595B" points="377.648,193.428 417.351,169.392 431.617,146.772 407.173,157.618 		"/>
		<polygon fill="#58595B" points="485.586,193.428 456.061,157.618 431.617,146.772 445.883,169.392 		"/>
		<polygon fill="#58595B" points="717.437,229.782 722.179,200.436 717.437,146.772 712.695,200.436 		"/>
		<polygon fill="#58595B" points="627.839,141.617 684.744,154.682 717.408,146.758 717.437,146.772 717.426,146.753 
			717.429,146.753 717.437,146.772 717.445,146.753 717.448,146.753 717.437,146.772 717.466,146.758 750.131,154.682 
			807.036,141.617 749.011,135.136 717.603,146.69 755.701,127.669 799.249,70.223 737.854,110.969 717.453,146.745 
			717.447,146.747 732.26,109.468 717.437,22.745 702.614,109.468 717.427,146.747 717.421,146.745 697.02,110.969 635.626,70.223 
			679.173,127.669 717.271,146.69 685.864,135.136 		"/>
		<polygon fill="#58595B" points="663.468,193.428 703.171,169.392 717.437,146.772 692.993,157.618 		"/>
		<polygon fill="#58595B" points="771.406,193.428 741.881,157.618 717.437,146.772 731.704,169.392 		"/>
		<polygon fill="#58595B" points="1003.257,229.782 1007.999,200.436 1003.257,146.772 998.515,200.436 		"/>
		<polygon fill="#58595B" points="913.659,141.617 970.563,154.682 1003.228,146.758 1003.257,146.772 1003.246,146.753 
			1003.249,146.753 1003.257,146.772 1003.265,146.753 1003.268,146.753 1003.257,146.772 1003.287,146.758 1035.951,154.682 
			1092.855,141.617 1034.831,135.136 1003.422,146.69 1041.521,127.669 1085.068,70.223 1023.674,110.969 1003.273,146.745 
			1003.267,146.747 1018.08,109.468 1003.257,22.745 988.434,109.468 1003.247,146.747 1003.241,146.745 982.84,110.969 
			921.446,70.223 964.993,127.669 1003.092,146.69 971.684,135.136 		"/>
		<polygon fill="#58595B" points="949.288,193.428 988.991,169.392 1003.257,146.772 978.813,157.618 		"/>
		<polygon fill="#58595B" points="1057.226,193.428 1027.701,157.618 1003.257,146.772 1017.523,169.392 		"/>
		<polygon fill="#58595B" points="145.797,477.31 150.539,447.963 145.797,394.3 141.055,447.963 		"/>
		<polygon fill="#58595B" points="56.198,389.144 113.104,402.21 145.768,394.285 145.797,394.3 145.786,394.281 145.789,394.28 
			145.797,394.3 145.805,394.28 145.808,394.281 145.797,394.3 145.826,394.285 178.49,402.21 235.396,389.144 177.371,382.664 
			145.962,394.218 184.061,375.196 227.608,317.751 166.214,358.497 145.813,394.272 145.807,394.275 160.62,356.996 
			145.797,270.273 130.974,356.996 145.787,394.275 145.781,394.272 125.38,358.497 63.986,317.751 107.533,375.196 
			145.632,394.218 114.223,382.664 		"/>
		<polygon fill="#58595B" points="91.828,440.955 131.531,416.919 145.797,394.3 121.353,405.146 		"/>
		<polygon fill="#58595B" points="199.766,440.955 170.241,405.146 145.797,394.3 160.063,416.919 		"/>
		<polygon fill="#58595B" points="431.617,477.31 436.359,447.963 431.617,394.3 426.875,447.963 		"/>
		<polygon fill="#58595B" points="342.019,389.144 398.923,402.21 431.588,394.285 431.617,394.3 431.606,394.281 431.609,394.28 
			431.617,394.3 431.625,394.28 431.628,394.281 431.617,394.3 431.646,394.285 464.311,402.21 521.215,389.144 463.19,382.664 
			431.782,394.218 469.881,375.196 513.428,317.751 452.034,358.497 431.633,394.272 431.627,394.275 446.44,356.996 
			431.617,270.273 416.794,356.996 431.607,394.275 431.601,394.272 411.2,358.497 349.806,317.751 393.353,375.196 
			431.452,394.218 400.043,382.664 		"/>
		<polygon fill="#58595B" points="377.648,440.955 417.351,416.919 431.617,394.3 407.173,405.146 		"/>
		<polygon fill="#58595B" points="485.586,440.955 456.061,405.146 431.617,394.3 445.883,416.919 		"/>
		<polygon fill="#58595B" points="717.437,477.31 722.179,447.963 717.437,394.3 712.695,447.963 		"/>
		<polygon fill="#58595B" points="697.02,358.497 635.626,317.751 679.173,375.196 717.272,394.218 685.864,382.664 
			627.839,389.144 684.744,402.21 717.408,394.285 717.437,394.3 717.426,394.281 717.429,394.28 717.437,394.3 717.445,394.28 
			717.448,394.281 717.437,394.3 717.466,394.285 750.131,402.21 807.036,389.144 749.011,382.664 717.602,394.218 755.701,375.196 
			799.249,317.751 737.854,358.497 717.453,394.272 717.447,394.275 732.26,356.996 717.437,270.273 702.614,356.996 
			717.427,394.275 717.421,394.272 		"/>
		<polygon fill="#58595B" points="663.468,440.955 703.171,416.919 717.437,394.3 692.993,405.146 		"/>
		<polygon fill="#58595B" points="771.406,440.955 741.881,405.146 717.437,394.3 731.704,416.919 		"/>
		<path fill="#58595B" d="M1077.599,250.027l71.455-123.764L1076.155,0H930.358l-70.012,121.264L790.336,0H644.539l-70.012,121.264
			L504.516,0H358.719l-70.012,121.264L218.695,0H72.898L0,126.264l71.455,123.764L0,373.791l71.455,123.764L0,621.319
			l71.455,123.764L0,868.846L71.455,992.61L0,1116.374l71.455,123.764L0,1363.901l71.455,123.764L0,1611.428l71.455,123.764
			L0,1858.956l72.898,126.264h145.797l70.012-121.264l70.012,121.264h145.797l70.012-121.264l70.012,121.264h145.797l70.011-121.264
			l70.012,121.264h145.797l72.898-126.264l-71.455-123.764l71.455-123.764l-71.455-123.764l71.455-123.764l-71.455-123.764
			l71.455-123.764l-71.455-123.764l71.455-123.764l-71.455-123.764l71.455-123.764l-71.455-123.764l71.455-123.764L1077.599,250.027
			z M860.347,1616.428l68.568,118.764l-68.568,118.764l-68.567-118.764L860.347,1616.428z M787.449,1732.692H647.426
			l-70.012-121.264l70.012-121.264h140.023l70.011,121.264L787.449,1732.692z M291.594,1611.428l70.012-121.264h140.023
			l70.012,121.264l-70.012,121.264H361.605L291.594,1611.428z M357.275,1735.192l-68.568,118.764l-68.568-118.764l68.568-118.764
			L357.275,1735.192z M288.707,368.791l-68.568-118.764l68.568-118.764l68.568,118.764L288.707,368.791z M361.605,252.527h140.023
			l70.012,121.264l-70.012,121.264H361.605l-70.012-121.264L361.605,252.527z M857.46,373.791l-70.011,121.264H647.426
			l-70.012-121.264l70.012-121.264h140.023L857.46,373.791z M791.779,250.027l68.567-118.764l68.568,118.764l-68.568,118.764
			L791.779,250.027z M643.096,497.555l-68.568,118.764l-68.568-118.764l68.568-118.764L643.096,497.555z M574.527,368.791
			l-68.568-118.764l68.568-118.764l68.568,118.764L574.527,368.791z M357.275,497.555l-68.568,118.764l-68.568-118.764
			l68.568-118.764L357.275,497.555z M361.605,500.055h140.023l70.012,121.264l-70.012,121.264H361.605l-70.012-121.264
			L361.605,500.055z M574.527,626.319l68.568,118.764l-68.568,118.764l-68.568-118.764L574.527,626.319z M357.275,745.083
			l-68.568,118.764l-68.568-118.764l68.568-118.764L357.275,745.083z M361.605,747.583h140.023l70.012,121.264L501.629,990.11
			H361.605l-70.012-121.264L361.605,747.583z M574.527,873.846l68.568,118.764l-68.568,118.764L505.959,992.61L574.527,873.846z
			 M357.275,992.61l-68.568,118.764L220.139,992.61l68.568-118.764L357.275,992.61z M361.605,995.11h140.023l70.012,121.264
			l-70.012,121.264H361.605l-70.012-121.264L361.605,995.11z M574.527,1121.373l68.568,118.764l-68.568,118.764l-68.568-118.764
			L574.527,1121.373z M357.275,1240.137l-68.568,118.764l-68.568-118.764l68.568-118.764L357.275,1240.137z M361.605,1242.637
			h140.023l70.012,121.264l-70.012,121.264H361.605l-70.012-121.264L361.605,1242.637z M574.527,1368.901l68.568,118.764
			l-68.568,118.764l-68.568-118.764L574.527,1368.901z M357.275,1487.665l-68.568,118.764l-68.568-118.764l68.568-118.764
			L357.275,1487.665z M574.527,1616.428l68.568,118.764l-68.568,118.764l-68.568-118.764L574.527,1616.428z M791.779,1487.665
			l68.567-118.764l68.568,118.764l-68.568,118.764L791.779,1487.665z M787.449,1485.165H647.426l-70.012-121.264l70.012-121.264
			h140.023l70.011,121.264L787.449,1485.165z M791.779,1240.137l68.567-118.764l68.568,118.764l-68.568,118.764L791.779,1240.137z
			 M787.449,1237.637H647.426l-70.012-121.264l70.012-121.264h140.023l70.011,121.264L787.449,1237.637z M791.779,992.61
			l68.567-118.764l68.568,118.764l-68.568,118.764L791.779,992.61z M787.449,990.11H647.426l-70.012-121.264l70.012-121.264h140.023
			l70.011,121.264L787.449,990.11z M791.779,745.083l68.567-118.764l68.568,118.764l-68.568,118.764L791.779,745.083z
			 M787.449,742.583H647.426l-70.012-121.264l70.012-121.264h140.023l70.011,121.264L787.449,742.583z M791.779,497.555
			l68.567-118.764l68.568,118.764l-68.568,118.764L791.779,497.555z M863.233,373.791l70.012-121.264h140.023l70.012,121.264
			l-70.012,121.264H933.245L863.233,373.791z M933.245,5h140.023l70.012,121.264l-70.012,121.264H933.245l-70.012-121.264L933.245,5
			z M647.426,5h140.023l70.011,121.264l-70.011,121.264H647.426l-70.012-121.264L647.426,5z M361.605,5h140.023l70.012,121.264
			l-70.012,121.264H361.605l-70.012-121.264L361.605,5z M75.785,5h140.023l70.012,121.264l-70.012,121.264H75.785L5.773,126.264
			L75.785,5z M75.785,252.527h140.023l70.012,121.264l-70.012,121.264H75.785L5.773,373.791L75.785,252.527z M75.785,500.055
			h140.023l70.012,121.264l-70.012,121.264H75.785L5.773,621.319L75.785,500.055z M75.785,747.583h140.023l70.012,121.264
			L215.809,990.11H75.785L5.773,868.846L75.785,747.583z M75.785,995.11h140.023l70.012,121.264l-70.012,121.264H75.785
			L5.773,1116.374L75.785,995.11z M75.785,1242.637h140.023l70.012,121.264l-70.012,121.264H75.785L5.773,1363.901L75.785,1242.637z
			 M75.785,1490.165h140.023l70.012,121.264l-70.012,121.264H75.785L5.773,1611.428L75.785,1490.165z M215.809,1980.219H75.785
			L5.773,1858.956l70.012-121.264h140.023l70.012,121.264L215.809,1980.219z M501.629,1980.219H361.605l-70.012-121.264
			l70.012-121.264h140.023l70.012,121.264L501.629,1980.219z M787.449,1980.219H647.426l-70.012-121.264l70.012-121.264h140.023
			l70.011,121.264L787.449,1980.219z M1073.269,1980.219H933.245l-70.012-121.264l70.012-121.264h140.023l70.012,121.264
			L1073.269,1980.219z M1073.269,1732.692H933.245l-70.012-121.264l70.012-121.264h140.023l70.012,121.264L1073.269,1732.692z
			 M1073.269,1485.165H933.245l-70.012-121.264l70.012-121.264h140.023l70.012,121.264L1073.269,1485.165z M1073.269,1237.637
			H933.245l-70.012-121.264l70.012-121.264h140.023l70.012,121.264L1073.269,1237.637z M1073.269,990.11H933.245l-70.012-121.264
			l70.012-121.264h140.023l70.012,121.264L1073.269,990.11z M1073.269,742.583H933.245l-70.012-121.264l70.012-121.264h140.023
			l70.012,121.264L1073.269,742.583z"/>
		<polygon fill="#58595B" points="1003.257,477.31 1007.999,447.963 1003.257,394.3 998.515,447.963 		"/>
		<polygon fill="#58595B" points="1035.951,402.21 1092.855,389.144 1034.831,382.664 1003.422,394.218 1041.521,375.196 
			1085.068,317.751 1023.674,358.497 1003.273,394.272 1003.267,394.275 1018.08,356.996 1003.257,270.273 988.434,356.996 
			1003.247,394.275 1003.242,394.272 982.84,358.497 921.446,317.751 964.993,375.196 1003.092,394.218 971.684,382.664 
			913.659,389.144 970.563,402.21 1003.228,394.285 1003.257,394.3 1003.246,394.281 1003.249,394.28 1003.257,394.3 
			1003.265,394.28 1003.268,394.281 1003.257,394.3 1003.286,394.285 		"/>
		<polygon fill="#58595B" points="949.288,440.955 988.991,416.919 1003.257,394.3 978.813,405.146 		"/>
		<polygon fill="#58595B" points="1003.257,394.3 1017.523,416.919 1057.226,440.955 1027.701,405.146 		"/>
		<polygon fill="#58595B" points="145.797,724.837 150.539,695.491 145.797,641.827 141.055,695.491 		"/>
		<polygon fill="#58595B" points="56.198,636.671 113.104,649.737 145.768,641.813 145.797,641.827 145.786,641.808 
			145.789,641.808 145.797,641.827 145.805,641.808 145.808,641.808 145.797,641.827 145.826,641.813 178.49,649.737 
			235.396,636.671 177.371,630.191 145.962,641.745 184.061,622.723 227.608,565.278 166.214,606.024 145.813,641.8 
			145.807,641.802 160.62,604.523 145.797,517.8 130.974,604.523 145.787,641.802 145.781,641.8 125.38,606.024 63.986,565.278 
			107.533,622.723 145.632,641.745 114.223,630.191 		"/>
		<polygon fill="#58595B" points="91.828,688.483 131.531,664.446 145.797,641.827 121.353,652.673 		"/>
		<polygon fill="#58595B" points="199.766,688.483 170.241,652.673 145.797,641.827 160.063,664.446 		"/>
		<polygon fill="#58595B" points="431.617,724.837 436.359,695.491 431.617,641.827 426.875,695.491 		"/>
		<polygon fill="#58595B" points="342.019,636.671 398.923,649.737 431.588,641.813 431.617,641.827 431.606,641.808 
			431.609,641.808 431.617,641.827 431.625,641.808 431.628,641.808 431.617,641.827 431.646,641.813 464.311,649.737 
			521.215,636.671 463.19,630.191 431.782,641.745 469.881,622.723 513.428,565.278 452.034,606.024 431.633,641.8 431.627,641.802 
			446.44,604.523 431.617,517.8 416.794,604.523 431.607,641.802 431.601,641.8 411.2,606.024 349.806,565.278 393.353,622.723 
			431.452,641.745 400.043,630.191 		"/>
		<polygon fill="#58595B" points="377.648,688.483 417.351,664.446 431.617,641.827 407.173,652.673 		"/>
		<polygon fill="#58595B" points="485.586,688.483 456.061,652.673 431.617,641.827 445.883,664.446 		"/>
		<polygon fill="#58595B" points="717.437,724.837 722.179,695.491 717.437,641.827 712.695,695.491 		"/>
		<polygon fill="#58595B" points="799.249,565.278 737.854,606.024 717.453,641.8 717.447,641.802 732.26,604.523 717.437,517.8 
			702.614,604.523 717.427,641.802 717.421,641.8 697.02,606.024 635.626,565.278 679.173,622.723 717.272,641.745 685.864,630.191 
			627.839,636.671 684.744,649.737 717.408,641.813 717.437,641.827 717.426,641.808 717.429,641.808 717.437,641.827 
			717.445,641.808 717.448,641.808 717.437,641.827 717.466,641.813 750.131,649.737 807.036,636.671 749.011,630.191 
			717.602,641.745 755.701,622.723 		"/>
		<polygon fill="#58595B" points="663.468,688.483 703.171,664.446 717.437,641.827 692.993,652.673 		"/>
		<polygon fill="#58595B" points="771.406,688.483 741.881,652.673 717.437,641.827 731.704,664.446 		"/>
		<polygon fill="#58595B" points="1003.257,724.837 1007.999,695.491 1003.257,641.827 998.515,695.491 		"/>
		<polygon fill="#58595B" points="1085.068,565.278 1023.674,606.024 1003.273,641.8 1003.267,641.802 1018.08,604.523 
			1003.257,517.8 988.434,604.523 1003.247,641.802 1003.242,641.8 982.84,606.024 921.446,565.278 964.993,622.723 
			1003.092,641.745 971.684,630.191 913.659,636.671 970.563,649.737 1003.228,641.813 1003.257,641.827 1003.246,641.808 
			1003.249,641.808 1003.257,641.827 1003.265,641.808 1003.268,641.808 1003.257,641.827 1003.286,641.813 1035.951,649.737 
			1092.855,636.671 1034.831,630.191 1003.422,641.745 1041.521,622.723 		"/>
		<polygon fill="#58595B" points="949.288,688.483 988.991,664.446 1003.257,641.827 978.813,652.673 		"/>
		<polygon fill="#58595B" points="1057.226,688.483 1027.701,652.673 1003.257,641.827 1017.523,664.446 		"/>
		<polygon fill="#58595B" points="145.797,972.364 150.539,943.018 145.797,889.355 141.055,943.018 		"/>
		<polygon fill="#58595B" points="56.198,884.199 113.104,897.265 145.768,889.34 145.797,889.355 145.786,889.336 145.789,889.335 
			145.797,889.355 145.805,889.335 145.808,889.336 145.797,889.355 145.826,889.34 178.49,897.265 235.396,884.199 
			177.371,877.719 145.962,889.272 184.061,870.251 227.608,812.806 166.214,853.552 145.813,889.327 145.807,889.329 
			160.62,852.051 145.797,765.328 130.974,852.051 145.787,889.329 145.781,889.327 125.38,853.552 63.986,812.806 107.533,870.251 
			145.632,889.272 114.223,877.719 		"/>
		<polygon fill="#58595B" points="91.828,936.01 131.531,911.974 145.797,889.355 121.353,900.201 		"/>
		<polygon fill="#58595B" points="199.766,936.01 170.241,900.201 145.797,889.355 160.063,911.974 		"/>
		<polygon fill="#58595B" points="431.617,972.364 436.359,943.018 431.617,889.355 426.875,943.018 		"/>
		<polygon fill="#58595B" points="342.019,884.199 398.923,897.265 431.588,889.34 431.617,889.355 431.606,889.336 
			431.609,889.335 431.617,889.355 431.625,889.335 431.628,889.336 431.617,889.355 431.646,889.34 464.311,897.265 
			521.215,884.199 463.19,877.719 431.782,889.272 469.881,870.251 513.428,812.806 452.034,853.552 431.633,889.327 
			431.627,889.329 446.44,852.051 431.617,765.328 416.794,852.051 431.607,889.329 431.601,889.327 411.2,853.552 349.806,812.806 
			393.353,870.251 431.452,889.272 400.043,877.719 		"/>
		<polygon fill="#58595B" points="377.648,936.01 417.351,911.974 431.617,889.355 407.173,900.201 		"/>
		<polygon fill="#58595B" points="485.586,936.01 456.061,900.201 431.617,889.355 445.883,911.974 		"/>
		<polygon fill="#58595B" points="717.437,972.364 722.179,943.018 717.437,889.355 712.695,943.018 		"/>
		<polygon fill="#58595B" points="799.249,812.806 737.854,853.552 717.453,889.327 717.447,889.329 732.26,852.051 
			717.437,765.328 702.614,852.051 717.427,889.329 717.421,889.327 697.02,853.552 635.626,812.806 679.173,870.251 
			717.271,889.272 685.864,877.719 627.839,884.199 684.744,897.265 717.408,889.34 717.437,889.355 717.426,889.336 
			717.429,889.335 717.437,889.355 717.445,889.335 717.448,889.336 717.437,889.355 717.466,889.34 750.131,897.265 
			807.036,884.199 749.011,877.719 717.603,889.272 755.701,870.251 		"/>
		<polygon fill="#58595B" points="663.468,936.01 703.171,911.974 717.437,889.355 692.993,900.201 		"/>
		<polygon fill="#58595B" points="771.406,936.01 741.881,900.201 717.437,889.355 731.704,911.974 		"/>
		<polygon fill="#58595B" points="1003.257,972.364 1007.999,943.018 1003.257,889.355 998.515,943.018 		"/>
		<polygon fill="#58595B" points="1085.068,812.806 1023.674,853.552 1003.273,889.327 1003.267,889.329 1018.08,852.051 
			1003.257,765.328 988.434,852.051 1003.247,889.329 1003.241,889.327 982.84,853.552 921.446,812.806 964.993,870.251 
			1003.092,889.272 971.684,877.719 913.659,884.199 970.563,897.265 1003.228,889.34 1003.257,889.355 1003.246,889.336 
			1003.249,889.335 1003.257,889.355 1003.265,889.335 1003.268,889.336 1003.257,889.355 1003.287,889.34 1035.951,897.265 
			1092.855,884.199 1034.831,877.719 1003.422,889.272 1041.521,870.251 		"/>
		<polygon fill="#58595B" points="949.288,936.01 988.991,911.974 1003.257,889.355 978.813,900.201 		"/>
		<polygon fill="#58595B" points="1057.226,936.01 1027.701,900.201 1003.257,889.355 1017.523,911.974 		"/>
		<polygon fill="#58595B" points="145.797,1219.892 150.539,1190.546 145.797,1136.882 141.055,1190.546 		"/>
		<polygon fill="#58595B" points="56.198,1131.726 113.104,1144.792 145.768,1136.868 145.797,1136.882 145.786,1136.863 
			145.789,1136.862 145.797,1136.882 145.805,1136.862 145.808,1136.863 145.797,1136.882 145.826,1136.868 178.49,1144.792 
			235.396,1131.726 177.371,1125.246 145.962,1136.8 184.061,1117.778 227.608,1060.333 166.214,1101.079 145.813,1136.855 
			145.807,1136.857 160.62,1099.578 145.797,1012.855 130.974,1099.578 145.787,1136.857 145.781,1136.855 125.38,1101.079 
			63.986,1060.333 107.533,1117.778 145.632,1136.8 114.223,1125.246 		"/>
		<polygon fill="#58595B" points="91.828,1183.537 131.531,1159.501 145.797,1136.882 121.353,1147.728 		"/>
		<polygon fill="#58595B" points="199.766,1183.537 170.241,1147.728 145.797,1136.882 160.063,1159.501 		"/>
		<polygon fill="#58595B" points="431.617,1219.892 436.359,1190.546 431.617,1136.882 426.875,1190.546 		"/>
		<polygon fill="#58595B" points="342.019,1131.726 398.923,1144.792 431.588,1136.868 431.617,1136.882 431.606,1136.863 
			431.609,1136.862 431.617,1136.882 431.625,1136.862 431.628,1136.863 431.617,1136.882 431.646,1136.868 464.311,1144.792 
			521.215,1131.726 463.19,1125.246 431.782,1136.8 469.881,1117.778 513.428,1060.333 452.034,1101.079 431.633,1136.855 
			431.627,1136.857 446.44,1099.578 431.617,1012.855 416.794,1099.578 431.607,1136.857 431.601,1136.855 411.2,1101.079 
			349.806,1060.333 393.353,1117.778 431.452,1136.8 400.043,1125.246 		"/>
		<polygon fill="#58595B" points="377.648,1183.537 417.351,1159.501 431.617,1136.882 407.173,1147.728 		"/>
		<polygon fill="#58595B" points="485.586,1183.537 456.061,1147.728 431.617,1136.882 445.883,1159.501 		"/>
		<polygon fill="#58595B" points="717.437,1219.892 722.179,1190.546 717.437,1136.882 712.695,1190.546 		"/>
		<polygon fill="#58595B" points="799.249,1060.333 737.854,1101.079 717.453,1136.855 717.447,1136.857 732.26,1099.578 
			717.437,1012.855 702.614,1099.578 717.427,1136.857 717.421,1136.855 697.02,1101.079 635.626,1060.333 679.173,1117.778 
			717.272,1136.8 685.864,1125.246 627.839,1131.726 684.744,1144.792 717.408,1136.868 717.437,1136.882 717.426,1136.863 
			717.429,1136.862 717.437,1136.882 717.445,1136.862 717.448,1136.863 717.437,1136.882 717.466,1136.868 750.131,1144.792 
			807.036,1131.726 749.011,1125.246 717.602,1136.8 755.701,1117.778 		"/>
		<polygon fill="#58595B" points="663.468,1183.537 703.171,1159.501 717.437,1136.882 692.993,1147.728 		"/>
		<polygon fill="#58595B" points="771.406,1183.537 741.881,1147.728 717.437,1136.882 731.704,1159.501 		"/>
		<polygon fill="#58595B" points="1003.257,1219.892 1007.999,1190.546 1003.257,1136.882 998.515,1190.546 		"/>
		<polygon fill="#58595B" points="1085.068,1060.333 1023.674,1101.079 1003.273,1136.855 1003.267,1136.857 1018.08,1099.578 
			1003.257,1012.855 988.434,1099.578 1003.247,1136.857 1003.242,1136.855 982.84,1101.079 921.446,1060.333 964.993,1117.778 
			1003.092,1136.8 971.684,1125.246 913.659,1131.726 970.563,1144.792 1003.228,1136.868 1003.257,1136.882 1003.246,1136.863 
			1003.249,1136.862 1003.257,1136.882 1003.265,1136.862 1003.268,1136.863 1003.257,1136.882 1003.286,1136.868 
			1035.951,1144.792 1092.855,1131.726 1034.831,1125.246 1003.422,1136.8 1041.521,1117.778 		"/>
		<polygon fill="#58595B" points="949.288,1183.537 988.991,1159.501 1003.257,1136.882 978.813,1147.728 		"/>
		<polygon fill="#58595B" points="1057.226,1183.537 1027.701,1147.728 1003.257,1136.882 1017.523,1159.501 		"/>
		<polygon fill="#58595B" points="145.797,1467.419 150.539,1438.073 145.797,1384.41 141.055,1438.073 		"/>
		<polygon fill="#58595B" points="56.198,1379.254 113.104,1392.319 145.768,1384.395 145.797,1384.41 145.786,1384.391 
			145.789,1384.39 145.797,1384.41 145.805,1384.39 145.808,1384.391 145.797,1384.41 145.826,1384.395 178.49,1392.319 
			235.396,1379.254 177.371,1372.774 145.962,1384.327 184.061,1365.306 227.608,1307.86 166.214,1348.606 145.813,1384.382 
			145.807,1384.384 160.62,1347.105 145.797,1260.383 130.974,1347.105 145.787,1384.384 145.781,1384.382 125.38,1348.606 
			63.986,1307.86 107.533,1365.306 145.632,1384.327 114.223,1372.774 		"/>
		<polygon fill="#58595B" points="91.828,1431.065 131.531,1407.029 145.797,1384.41 121.353,1395.255 		"/>
		<polygon fill="#58595B" points="199.766,1431.065 170.241,1395.255 145.797,1384.41 160.063,1407.029 		"/>
		<polygon fill="#58595B" points="431.617,1467.419 436.359,1438.073 431.617,1384.41 426.875,1438.073 		"/>
		<polygon fill="#58595B" points="342.019,1379.254 398.923,1392.319 431.588,1384.395 431.617,1384.41 431.606,1384.391 
			431.609,1384.39 431.617,1384.41 431.625,1384.39 431.628,1384.391 431.617,1384.41 431.646,1384.395 464.311,1392.319 
			521.215,1379.254 463.19,1372.774 431.782,1384.327 469.881,1365.306 513.428,1307.86 452.034,1348.606 431.633,1384.382 
			431.627,1384.384 446.44,1347.105 431.617,1260.383 416.794,1347.105 431.607,1384.384 431.601,1384.382 411.2,1348.606 
			349.806,1307.86 393.353,1365.306 431.452,1384.327 400.043,1372.774 		"/>
		<polygon fill="#58595B" points="377.648,1431.065 417.351,1407.029 431.617,1384.41 407.173,1395.255 		"/>
		<polygon fill="#58595B" points="485.586,1431.065 456.061,1395.255 431.617,1384.41 445.883,1407.029 		"/>
		<polygon fill="#58595B" points="717.437,1467.419 722.179,1438.073 717.437,1384.41 712.695,1438.073 		"/>
		<polygon fill="#58595B" points="799.249,1307.86 737.854,1348.606 717.453,1384.382 717.447,1384.384 732.26,1347.105 
			717.437,1260.383 702.614,1347.105 717.427,1384.384 717.421,1384.382 697.02,1348.606 635.626,1307.86 679.173,1365.306 
			717.272,1384.327 685.864,1372.774 627.839,1379.254 684.744,1392.319 717.408,1384.395 717.437,1384.41 717.426,1384.391 
			717.429,1384.39 717.437,1384.41 717.445,1384.39 717.448,1384.391 717.437,1384.41 717.466,1384.395 750.131,1392.319 
			807.036,1379.254 749.011,1372.774 717.602,1384.327 755.701,1365.306 		"/>
		<polygon fill="#58595B" points="663.468,1431.065 703.171,1407.029 717.437,1384.41 692.993,1395.255 		"/>
		<polygon fill="#58595B" points="771.406,1431.065 741.881,1395.255 717.437,1384.41 731.704,1407.029 		"/>
		<polygon fill="#58595B" points="1003.257,1467.419 1007.999,1438.073 1003.257,1384.41 998.515,1438.073 		"/>
		<polygon fill="#58595B" points="1085.068,1307.86 1023.674,1348.606 1003.273,1384.382 1003.267,1384.384 1018.08,1347.105 
			1003.257,1260.383 988.434,1347.105 1003.247,1384.384 1003.242,1384.382 982.84,1348.606 921.446,1307.86 964.993,1365.306 
			1003.092,1384.327 971.684,1372.774 913.659,1379.254 970.563,1392.319 1003.228,1384.395 1003.257,1384.41 1003.246,1384.391 
			1003.249,1384.39 1003.257,1384.41 1003.265,1384.39 1003.268,1384.391 1003.257,1384.41 1003.286,1384.395 1035.951,1392.319 
			1092.855,1379.254 1034.831,1372.774 1003.422,1384.327 1041.521,1365.306 		"/>
		<polygon fill="#58595B" points="949.288,1431.065 988.991,1407.029 1003.257,1384.41 978.813,1395.255 		"/>
		<polygon fill="#58595B" points="1057.226,1431.065 1027.701,1395.255 1003.257,1384.41 1017.523,1407.029 		"/>
		<polygon fill="#58595B" points="145.797,1714.947 150.539,1685.6 145.797,1631.937 141.055,1685.6 		"/>
		<polygon fill="#58595B" points="56.198,1626.781 113.104,1639.847 145.768,1631.922 145.797,1631.937 145.786,1631.918 
			145.789,1631.917 145.797,1631.937 145.805,1631.917 145.808,1631.918 145.797,1631.937 145.826,1631.922 178.49,1639.847 
			235.396,1626.781 177.371,1620.301 145.962,1631.854 184.061,1612.833 227.608,1555.388 166.214,1596.134 145.813,1631.91 
			145.807,1631.912 160.62,1594.633 145.797,1507.91 130.974,1594.633 145.787,1631.912 145.781,1631.91 125.38,1596.134 
			63.986,1555.388 107.533,1612.833 145.632,1631.854 114.223,1620.301 		"/>
		<polygon fill="#58595B" points="91.828,1678.592 131.531,1654.556 145.797,1631.937 121.353,1642.783 		"/>
		<polygon fill="#58595B" points="199.766,1678.592 170.241,1642.783 145.797,1631.937 160.063,1654.556 		"/>
		<polygon fill="#58595B" points="431.617,1714.947 436.359,1685.6 431.617,1631.937 426.875,1685.6 		"/>
		<polygon fill="#58595B" points="464.311,1639.847 521.215,1626.781 463.19,1620.301 431.782,1631.854 469.881,1612.833 
			513.428,1555.388 452.034,1596.134 431.633,1631.91 431.627,1631.912 446.44,1594.633 431.617,1507.91 416.794,1594.633 
			431.607,1631.912 431.601,1631.91 411.2,1596.134 349.806,1555.388 393.353,1612.833 431.452,1631.854 400.043,1620.301 
			342.019,1626.781 398.923,1639.847 431.588,1631.922 431.617,1631.937 431.606,1631.918 431.609,1631.917 431.617,1631.937 
			431.625,1631.917 431.628,1631.918 431.617,1631.937 431.646,1631.922 		"/>
		<polygon fill="#58595B" points="377.648,1678.592 417.351,1654.556 431.617,1631.937 407.173,1642.783 		"/>
		<polygon fill="#58595B" points="431.617,1631.937 445.883,1654.556 485.586,1678.592 456.061,1642.783 		"/>
		<polygon fill="#58595B" points="717.437,1714.947 722.179,1685.6 717.437,1631.937 712.695,1685.6 		"/>
		<polygon fill="#58595B" points="799.249,1555.388 737.854,1596.134 717.453,1631.91 717.447,1631.912 732.26,1594.633 
			717.437,1507.91 702.614,1594.633 717.427,1631.912 717.421,1631.91 697.02,1596.134 635.626,1555.388 679.173,1612.833 
			717.271,1631.854 685.864,1620.301 627.839,1626.781 684.744,1639.847 717.408,1631.922 717.437,1631.937 717.426,1631.918 
			717.429,1631.917 717.437,1631.937 717.445,1631.917 717.448,1631.918 717.437,1631.937 717.466,1631.922 750.131,1639.847 
			807.036,1626.781 749.011,1620.301 717.603,1631.854 755.701,1612.833 		"/>
		<polygon fill="#58595B" points="663.468,1678.592 703.171,1654.556 717.437,1631.937 692.993,1642.783 		"/>
		<polygon fill="#58595B" points="771.406,1678.592 741.881,1642.783 717.437,1631.937 731.704,1654.556 		"/>
		<polygon fill="#58595B" points="1003.257,1714.947 1007.999,1685.6 1003.257,1631.937 998.515,1685.6 		"/>
		<polygon fill="#58595B" points="1085.068,1555.388 1023.674,1596.134 1003.273,1631.91 1003.267,1631.912 1018.08,1594.633 
			1003.257,1507.91 988.434,1594.633 1003.247,1631.912 1003.241,1631.91 982.84,1596.134 921.446,1555.388 964.993,1612.833 
			1003.092,1631.854 971.684,1620.301 913.659,1626.781 970.563,1639.847 1003.228,1631.922 1003.257,1631.937 1003.246,1631.918 
			1003.249,1631.917 1003.257,1631.937 1003.265,1631.917 1003.268,1631.918 1003.257,1631.937 1003.287,1631.922 
			1035.951,1639.847 1092.855,1626.781 1034.831,1620.301 1003.422,1631.854 1041.521,1612.833 		"/>
		<polygon fill="#58595B" points="949.288,1678.592 988.991,1654.556 1003.257,1631.937 978.813,1642.783 		"/>
		<polygon fill="#58595B" points="1057.226,1678.592 1027.701,1642.783 1003.257,1631.937 1017.523,1654.556 		"/>
		<polygon fill="#58595B" points="145.797,1962.474 150.539,1933.128 145.797,1879.464 141.055,1933.128 		"/>
		<polygon fill="#58595B" points="227.608,1802.915 166.214,1843.661 145.813,1879.437 145.807,1879.439 160.62,1842.16 
			145.797,1755.437 130.974,1842.16 145.787,1879.439 145.781,1879.437 125.38,1843.661 63.986,1802.915 107.533,1860.36 
			145.632,1879.382 114.223,1867.828 56.198,1874.308 113.104,1887.374 145.768,1879.45 145.797,1879.464 145.786,1879.445 
			145.789,1879.445 145.797,1879.464 145.805,1879.445 145.808,1879.445 145.797,1879.464 145.826,1879.45 178.49,1887.374 
			235.396,1874.308 177.371,1867.828 145.962,1879.382 184.061,1860.36 		"/>
		<polygon fill="#58595B" points="91.828,1926.12 131.531,1902.083 145.797,1879.464 121.353,1890.31 		"/>
		<polygon fill="#58595B" points="199.766,1926.12 170.241,1890.31 145.797,1879.464 160.063,1902.083 		"/>
		<polygon fill="#58595B" points="431.617,1962.474 436.359,1933.128 431.617,1879.464 426.875,1933.128 		"/>
		<polygon fill="#58595B" points="513.428,1802.915 452.034,1843.661 431.633,1879.437 431.627,1879.439 446.44,1842.16 
			431.617,1755.437 416.794,1842.16 431.607,1879.439 431.601,1879.437 411.2,1843.661 349.806,1802.915 393.353,1860.36 
			431.452,1879.382 400.043,1867.828 342.019,1874.308 398.923,1887.374 431.588,1879.45 431.617,1879.464 431.606,1879.445 
			431.609,1879.445 431.617,1879.464 431.625,1879.445 431.628,1879.445 431.617,1879.464 431.646,1879.45 464.311,1887.374 
			521.215,1874.308 463.19,1867.828 431.782,1879.382 469.881,1860.36 		"/>
		<polygon fill="#58595B" points="377.648,1926.12 417.351,1902.083 431.617,1879.464 407.173,1890.31 		"/>
		<polygon fill="#58595B" points="485.586,1926.12 456.061,1890.31 431.617,1879.464 445.883,1902.083 		"/>
		<polygon fill="#58595B" points="717.437,1962.474 722.179,1933.128 717.437,1879.464 712.695,1933.128 		"/>
		<polygon fill="#58595B" points="799.249,1802.915 737.854,1843.661 717.453,1879.437 717.447,1879.439 732.26,1842.16 
			717.437,1755.437 702.614,1842.16 717.427,1879.439 717.421,1879.437 697.02,1843.661 635.626,1802.915 679.173,1860.36 
			717.271,1879.382 685.864,1867.828 627.839,1874.308 684.744,1887.374 717.408,1879.45 717.437,1879.464 717.426,1879.445 
			717.429,1879.445 717.437,1879.464 717.445,1879.445 717.448,1879.445 717.437,1879.464 717.466,1879.45 750.131,1887.374 
			807.036,1874.308 749.011,1867.828 717.603,1879.382 755.701,1860.36 		"/>
		<polygon fill="#58595B" points="663.468,1926.12 703.171,1902.083 717.437,1879.464 692.993,1890.31 		"/>
		<polygon fill="#58595B" points="771.406,1926.12 741.881,1890.31 717.437,1879.464 731.704,1902.083 		"/>
		<polygon fill="#58595B" points="1003.257,1962.474 1007.999,1933.128 1003.257,1879.464 998.515,1933.128 		"/>
		<polygon fill="#58595B" points="1085.068,1802.915 1023.674,1843.661 1003.273,1879.437 1003.267,1879.439 1018.08,1842.16 
			1003.257,1755.437 988.434,1842.16 1003.247,1879.439 1003.241,1879.437 982.84,1843.661 921.446,1802.915 964.993,1860.36 
			1003.092,1879.382 971.684,1867.828 913.659,1874.308 970.563,1887.374 1003.228,1879.45 1003.257,1879.464 1003.246,1879.445 
			1003.249,1879.445 1003.257,1879.464 1003.265,1879.445 1003.268,1879.445 1003.257,1879.464 1003.287,1879.45 1035.951,1887.374 
			1092.855,1874.308 1034.831,1867.828 1003.422,1879.382 1041.521,1860.36 		"/>
		<polygon fill="#58595B" points="949.288,1926.12 988.991,1902.083 1003.257,1879.464 978.813,1890.31 		"/>
		<polygon fill="#58595B" points="1057.226,1926.12 1027.701,1890.31 1003.257,1879.464 1017.523,1902.083 		"/>
	</g>
</g>
</svg>
