<?xml version="1.0" encoding="utf-8"?>
<!-- Generator: Adobe Illustrator 17.0.0, SVG Export Plug-In . SVG Version: 6.00 Build 0)  -->
<!DOCTYPE svg PUBLIC "-//W3C//DTD SVG 1.1//EN" "http://www.w3.org/Graphics/SVG/1.1/DTD/svg11.dtd">
<svg version="1.1" id="Layer_1" xmlns="http://www.w3.org/2000/svg" xmlns:xlink="http://www.w3.org/1999/xlink" x="0px" y="0px"
	 width="136.859px" height="126.292px" viewBox="0 0 136.859 126.292" enable-background="new 0 0 136.859 126.292"
	 xml:space="preserve">
<g>
	<path fill="#FFFFFF" d="M25.028,12.514C25.028,5.614,19.415,0,12.514,0C5.614,0,0,5.614,0,12.514s5.614,12.514,12.514,12.514
		C19.415,25.028,25.028,19.414,25.028,12.514z M3.878,12.514c0-4.762,3.874-8.636,8.636-8.636c4.762,0,8.637,3.874,8.637,8.636
		s-3.874,8.636-8.637,8.636C7.752,21.15,3.878,17.276,3.878,12.514z"/>
	<path fill="#FFFFFF" d="M39.823,66.346l29.573-6.099l37.697-7.774l-0.391-1.899c-3.664-17.764-21.626-30.171-43.682-30.171
		c-3.602,0-7.247,0.342-10.856,1.012c0.436-0.774,0.609-1.702,0.415-2.641c-0.426-2.064-2.444-3.392-4.508-2.967
		c-2.064,0.426-3.392,2.444-2.967,4.508c0.209,1.012,0.802,1.846,1.595,2.384c-23.934,6.79-39.616,27.363-35.451,47.56l0.392,1.899
		L39.823,66.346L39.823,66.346z M51.762,25.442c0.457-0.094,0.928-0.142,1.4-0.142c8.105,0,17.201,13.019,21.144,29.976
		L42.861,61.76C39.587,43.548,43.513,27.143,51.762,25.442z M102.447,49.472l-24.342,5.02c-3.207-13.861-9.69-25.103-16.854-30.165
		c0.59-0.019,1.181-0.046,1.769-0.046C82.408,24.28,98.3,34.544,102.447,49.472z M42.542,28.192
		c-4.557,7.418-6.065,20.162-3.48,34.352l-24.343,5.02C12.517,51.469,24.25,35.407,42.542,28.192z"/>
	<polygon fill="#FFFFFF" points="61.325,61.248 57.527,62.042 69.78,122.356 26.423,122.356 26.423,126.292 136.859,126.292 
		136.859,122.356 73.74,122.356 	"/>
	<path fill="#FFFFFF" d="M77.601,34.687c6.606,2.645,11.894,6.826,15.294,12.09c0.214,0.331,0.573,0.512,0.94,0.512
		c0.208,0,0.418-0.058,0.606-0.179c0.519-0.335,0.668-1.027,0.333-1.546c-3.652-5.656-9.303-10.134-16.342-12.953
		c-0.573-0.23-1.225,0.049-1.454,0.623C76.748,33.807,77.027,34.457,77.601,34.687z"/>
	<path fill="#FFFFFF" d="M28.21,43.168c-4.271,4.998-7.247,10.721-8.606,16.548c-0.162,0.696,0.271,1.39,0.966,1.553
		c0.099,0.023,0.198,0.033,0.295,0.033c0.587,0,1.118-0.403,1.258-0.999c1.264-5.426,4.049-10.77,8.053-15.455
		c0.464-0.543,0.4-1.359-0.143-1.823C29.49,42.562,28.674,42.625,28.21,43.168z"/>
	<path fill="#FFFFFF" d="M50.018,45.261c0.014-0.714-0.553-1.304-1.267-1.319c-0.009,0-0.018,0-0.027,0
		c-0.702,0-1.278,0.562-1.292,1.267c-0.057,2.845,0.076,5.81,0.394,8.811c0.071,0.663,0.632,1.156,1.284,1.156
		c0.046,0,0.092-0.003,0.139-0.007c0.709-0.076,1.224-0.713,1.149-1.423C50.09,50.854,49.962,47.999,50.018,45.261z"/>
</g>
</svg>
