<?xml version="1.0" encoding="utf-8"?>
<!-- Generator: Adobe Illustrator 17.0.0, SVG Export Plug-In . SVG Version: 6.00 Build 0)  -->
<!DOCTYPE svg PUBLIC "-//W3C//DTD SVG 1.1//EN" "http://www.w3.org/Graphics/SVG/1.1/DTD/svg11.dtd">
<svg version="1.1" id="Layer_1" xmlns="http://www.w3.org/2000/svg" xmlns:xlink="http://www.w3.org/1999/xlink" x="0px" y="0px"
	 width="116.472px" height="103.033px" viewBox="0 0 116.472 103.033" enable-background="new 0 0 116.472 103.033"
	 xml:space="preserve">
<g>
	<path fill="#FFFFFF" d="M82.882,29.537H42.472l-3.263-13.46h-9.065V18h7.553l9.375,38.67c-1.999,0.582-3.468,2.406-3.468,4.594
		c0,2.654,2.152,4.807,4.807,4.807c2.655,0,4.807-2.153,4.807-4.807c0-1.087-0.375-2.08-0.983-2.884h13.502
		c-0.608,0.805-0.982,1.797-0.982,2.884c0,2.654,2.151,4.807,4.806,4.807c2.656,0,4.808-2.153,4.808-4.807
		c0-2.656-2.152-4.806-4.807-4.807l0,0H48.999l-0.932-3.846H75.06L82.882,29.537z M51.296,61.264c0,1.59-1.294,2.884-2.884,2.884
		c-1.59,0-2.884-1.294-2.884-2.884c0-1.59,1.294-2.884,2.884-2.884C50.002,58.38,51.296,59.673,51.296,61.264z M72.448,61.264
		c0,1.59-1.294,2.884-2.885,2.884c-1.59,0-2.883-1.294-2.883-2.884c0-1.59,1.294-2.884,2.883-2.884
		C71.154,58.38,72.448,59.673,72.448,61.264z M47.601,50.688L42.939,31.46H80.2l-6.519,19.229H47.601z"/>
	<path fill="#FFFFFF" d="M116.472,80.634V0H0v80.634h55.996v17.919H40.317v4.48h35.838v-4.48H60.476V80.634H116.472z M4.48,4.48
		h107.513v71.675H4.48V4.48z"/>
</g>
</svg>
