<?xml version="1.0" encoding="utf-8"?>
<!-- Generator: Adobe Illustrator 17.0.0, SVG Export Plug-In . SVG Version: 6.00 Build 0)  -->
<!DOCTYPE svg PUBLIC "-//W3C//DTD SVG 1.1//EN" "http://www.w3.org/Graphics/SVG/1.1/DTD/svg11.dtd">
<svg version="1.1" id="Layer_1" xmlns="http://www.w3.org/2000/svg" xmlns:xlink="http://www.w3.org/1999/xlink" x="0px" y="0px"
	 width="102.607px" height="102.607px" viewBox="0 0 102.607 102.607" enable-background="new 0 0 102.607 102.607"
	 xml:space="preserve">
<g>
	<path fill="#FFFFFF" d="M0,0v102.607h102.607V0H0z M98.332,98.332H4.275V29.927h94.057V98.332z M98.332,25.652H4.275V4.275h94.057
		V25.652z"/>
	<rect x="34.202" y="12.826" fill="#FFFFFF" width="4.275" height="4.275"/>
	<rect x="64.129" y="12.826" fill="#FFFFFF" width="4.275" height="4.275"/>
	<path fill="#FFFFFF" d="M36.106,52.126v23.714h4.476V42.314h-3.825l-0.1,0.685c-0.764,5.202-3.24,5.294-8.217,5.469l-0.773,0.033
		v3.624H36.106z"/>
	<path fill="#FFFFFF" d="M61.758,72.501c-4.025,0-6.923-2.714-7.039-6.609l-0.025-0.777h-4.472l0.021,0.823
		c0.142,6.33,4.676,10.588,11.289,10.588c6.664,0,11.882-5.102,11.882-11.611c0-7.081-4.63-11.837-11.519-11.837
		c-1.987,0-4.029,0.647-5.649,1.737l1.524-7.841h14.091v-4.251H54.435l-3.398,18.158h3.866l0.234-0.372
		c1.353-2.104,3.82-3.415,6.438-3.415c4.267,0,7.365,3.156,7.365,7.498C68.939,68.526,66.472,72.501,61.758,72.501z"/>
</g>
</svg>
