<?xml version="1.0" encoding="utf-8"?>
<!-- Generator: Adobe Illustrator 17.0.0, SVG Export Plug-In . SVG Version: 6.00 Build 0)  -->
<!DOCTYPE svg PUBLIC "-//W3C//DTD SVG 1.1//EN" "http://www.w3.org/Graphics/SVG/1.1/DTD/svg11.dtd">
<svg version="1.1" id="Layer_1" xmlns="http://www.w3.org/2000/svg" xmlns:xlink="http://www.w3.org/1999/xlink" x="0px" y="0px"
	 width="224.047px" height="258.708px" viewBox="0 0 224.047 258.708" enable-background="new 0 0 224.047 258.708"
	 xml:space="preserve">
<g>
	<polygon fill="#FFFFFF" points="0,64.677 112.024,0 224.047,64.677 224.047,194.031 112.024,258.708 0,194.031 	"/>
	<g>
		<g>
			<path fill="#58595B" d="M101.67,131.699l-5.294-0.027l0.112-21.868l-5.476-0.028l0.021-4.058l10.774-0.891L101.67,131.699z"/>
		</g>
		<g>
			<path fill="#58595B" d="M134.419,171.673l-17.774-0.091l0.018-3.475l8.252-9.237c1.232-1.437,2.109-2.653,2.629-3.652
				c0.52-0.997,0.783-1.916,0.787-2.753c0.006-1.091-0.263-1.965-0.806-2.624c-0.542-0.657-1.359-0.989-2.45-0.994
				c-1.153-0.006-2.046,0.408-2.682,1.242c-0.634,0.834-0.956,1.894-0.962,3.178l-5.167-0.026l-0.035-0.109
				c-0.049-2.352,0.738-4.341,2.359-5.964c1.621-1.623,3.791-2.428,6.508-2.414c2.717,0.014,4.823,0.719,6.32,2.116
				c1.497,1.396,2.24,3.264,2.228,5.605c-0.008,1.59-0.438,3.036-1.287,4.342c-0.849,1.305-2.311,3.111-4.385,5.416l-4.392,5.219
				l0.035,0.09l10.825,0.055L134.419,171.673z"/>
		</g>
		<g>
			<path fill="#58595B" d="M156.91,101.044l0.004-0.712L112.532,46.17L67.598,99.875l-0.465,90.953l89.315,0.457L156.91,101.044z
				 M71.545,101.319l40.955-48.95l40.452,49.367l-0.437,85.576l-81.409-0.416L71.545,101.319z"/>
		</g>
		<g>
			<path fill="#58595B" d="M119.257,72.481c-1.67-1.687-3.898-2.623-6.271-2.635c-2.374-0.013-4.611,0.901-6.298,2.571
				c-1.687,1.67-2.623,3.897-2.635,6.271c-0.013,2.374,0.901,4.611,2.571,6.298c1.67,1.687,3.897,2.623,6.271,2.635
				c2.374,0.013,4.611-0.901,6.298-2.57c1.687-1.67,2.623-3.898,2.635-6.271C121.84,76.405,120.927,74.168,119.257,72.481z
				 M112.911,84.326c-1.494-0.008-2.896-0.597-3.946-1.658c-1.051-1.062-1.626-2.469-1.618-3.964s0.597-2.896,1.658-3.946
				c1.062-1.051,2.469-1.626,3.964-1.618c1.494,0.008,2.896,0.597,3.947,1.659c1.051,1.061,1.625,2.469,1.618,3.963
				c-0.008,1.494-0.597,2.896-1.659,3.947C115.813,83.759,114.406,84.334,112.911,84.326z"/>
		</g>
		<g>
			
				<rect x="108.681" y="119.898" transform="matrix(-0.7035 -0.7107 0.7107 -0.7035 89.3336 316.3404)" fill="#58595B" width="3.953" height="39.273"/>
		</g>
	</g>
</g>
</svg>
